<?xml version="1.0" encoding="UTF-8" standalone="no"?>
<svg
   xmlns:dc="http://purl.org/dc/elements/1.1/"
   xmlns:cc="http://creativecommons.org/ns#"
   xmlns:rdf="http://www.w3.org/1999/02/22-rdf-syntax-ns#"
   xmlns:svg="http://www.w3.org/2000/svg"
   xmlns="http://www.w3.org/2000/svg"
   xmlns:sodipodi="http://sodipodi.sourceforge.net/DTD/sodipodi-0.dtd"
   xmlns:inkscape="http://www.inkscape.org/namespaces/inkscape"
   inkscape:version="1.0 (4035a4fb49, 2020-05-01)"
   sodipodi:docname="slider_off.svg"
   id="svg8"
   version="1.1"
   viewBox="0 0 16.933334 7.6022811"
   height="7.6022811mm"
   width="16.933334mm">
  <style
     id="style833"></style>
  <defs
     id="defs2" />
  <sodipodi:namedview
     fit-margin-bottom="0"
     fit-margin-right="0"
     fit-margin-left="0"
     fit-margin-top="0"
     inkscape:window-maximized="1"
     inkscape:window-y="-8"
     inkscape:window-x="-8"
     inkscape:window-height="1017"
     inkscape:window-width="1920"
     inkscape:guide-bbox="true"
     showguides="true"
     showgrid="false"
     inkscape:document-rotation="0"
     inkscape:current-layer="layer1"
     inkscape:document-units="mm"
     inkscape:cy="28.745692"
     inkscape:cx="21.035715"
     inkscape:zoom="12.037641"
     inkscape:pageshadow="2"
     inkscape:pageopacity="0.0"
     borderopacity="1.0"
     bordercolor="#666666"
     pagecolor="#ffffff"
     id="base">
    <sodipodi:guide
       id="guide863"
       orientation="1,0"
       position="0.047243048,280.09316" />
    <sodipodi:guide
       id="guide865"
       orientation="1,0"
       position="11.764503,280.66013" />
    <sodipodi:guide
       id="guide871"
       orientation="0,-1"
       position="5.4334031,281.32159" />
    <sodipodi:guide
       id="guide900"
       orientation="1,0"
       position="9.1186732,268.94287" />
  </sodipodi:namedview>
  <metadata
     id="metadata5">
    <rdf:RDF>
      <cc:Work
         rdf:about="">
        <dc:format>image/svg+xml</dc:format>
        <dc:type
           rdf:resource="http://purl.org/dc/dcmitype/StillImage" />
        <dc:title></dc:title>
      </cc:Work>
    </rdf:RDF>
  </metadata>
  <g
     transform="translate(-167.01823,-110.56483)"
     id="layer1"
     inkscape:groupmode="layer"
     inkscape:label="Layer 1">
    <g
       transform="matrix(1.4402883,0,0,1.4402883,-73.536164,-48.680394)"
       id="g995">
      <path
         id="path877-9"
         style="fill:#333333;fill-opacity:1;stroke:none;stroke-width:1.88976;stroke-linecap:square;stroke-linejoin:round;stroke-miterlimit:4;stroke-dasharray:none;stroke-opacity:1;paint-order:normal"
         d="m 641.2207,417.88281 v 0.002 a 9.9703937,9.9697693 0 0 0 -0.30859,0.008 h -0.47656 v 0.0254 a 9.9703937,9.9697693 0 0 0 -9.18555,9.9375 9.9703937,9.9697693 0 0 0 9.18555,9.9375 v 0.0391 h 26.61523 v -0.0918 a 9.9703937,9.9697693 0 0 0 8.63477,-9.8789 9.9703937,9.9697693 0 0 0 -8.63477,-9.88086 v -0.0899 h -25.51562 a 9.9703937,9.9697693 0 0 0 -0.31446,-0.008 z m 22.32032,1.91016 c 3.29128,-0.10773 6.83479,0.53835 8.74218,3.51172 3.28577,4.34766 0.54867,11.32632 -4.79101,12.32812 -7.84014,0.44901 -15.86285,0.0625 -23.77344,0.19141 -3.84518,0.5571 -8.29634,-0.99487 -9.80664,-4.84961 -2.34365,-4.79671 1.66086,-11.11643 7.06445,-11.09375 7.05804,-3.8e-4 14.11733,2.6e-4 21.17578,0 0.45443,-0.0416 0.91849,-0.0725 1.38868,-0.0879 z"
         transform="scale(0.26458333)" />
      <circle
         style="fill:#333333;fill-opacity:1;stroke:none;stroke-width:0.499999;stroke-linecap:square;stroke-linejoin:round;stroke-miterlimit:4;stroke-dasharray:none;stroke-opacity:1;paint-order:normal"
         id="path902-6-2"
         cx="-169.65631"
         cy="113.20387"
         r="1.4646634"
         transform="scale(-1,1)" />
    </g>
  </g>
</svg>
